<?xml version="1.0" encoding="UTF-8"?>
<svg width="40px" height="40px" viewBox="0 0 40 40" version="1.1" xmlns="http://www.w3.org/2000/svg" xmlns:xlink="http://www.w3.org/1999/xlink">
    <!-- Generator: sketchtool 49 (51002) - http://www.bohemiancoding.com/sketch -->
    <title>C763FDE1-D085-4716-BC91-ECB3A355F8C5</title>
    <desc>Created with sketchtool.</desc>
    <defs></defs>
    <g id="Page-1" stroke="none" stroke-width="1" fill="none" fill-rule="evenodd">
        <g id="1360" transform="translate(-579.000000, -1071.000000)" fill="#23DBB9" fill-rule="nonzero">
            <g id="Hero">
                <g id="Crypto-Icons" transform="translate(525.000000, 1031.000000)">
                    <g id="Icons" transform="translate(0.000000, 40.000000)">
                        <g id="ETC-alt" transform="translate(54.000000, 0.000000)">
                            <path d="M19.9823789,0 C8.95154185,0 0,8.95154185 0,19.9823789 C0,31.0132159 8.95154185,39.9647577 19.9823789,39.9647577 C31.0132159,39.9647577 39.9647577,31.0132159 39.9647577,19.9823789 C39.9647577,8.95154185 31.0132159,0 19.9823789,0 Z M20.0352423,6.73127753 L27.6123348,18.6784141 L20.0352423,15.2951542 L12.2290749,18.5903084 L20.0352423,6.73127753 Z M20.0881057,16.9162996 L28,20.4405286 L20.0881057,24.8634361 L11.9471366,20.3524229 L20.0881057,16.9162996 Z M20.123348,33.2334802 L12.246696,22.2555066 L20.0528634,26.7665198 L28,22.2555066 L20.123348,33.2334802 Z" id="Shape"></path>
                        </g>
                    </g>
                </g>
            </g>
        </g>
    </g>
</svg>