<?xml version="1.0" encoding="UTF-8"?>
<svg width="40px" height="40px" viewBox="0 0 40 40" version="1.1" xmlns="http://www.w3.org/2000/svg" xmlns:xlink="http://www.w3.org/1999/xlink">
    <!-- Generator: sketchtool 49 (51002) - http://www.bohemiancoding.com/sketch -->
    <title>1DAA5757-228F-42FF-854B-1A2CA9E180AE</title>
    <desc>Created with sketchtool.</desc>
    <defs></defs>
    <g id="Page-1" stroke="none" stroke-width="1" fill="none" fill-rule="evenodd">
        <g id="1360" transform="translate(-525.000000, -1071.000000)" fill="#23DBB9" fill-rule="nonzero">
            <g id="Hero">
                <g id="Crypto-Icons" transform="translate(525.000000, 1031.000000)">
                    <g id="Icons" transform="translate(0.000000, 40.000000)">
                        <g id="BTC">
                            <path d="M23.9145374,21.540793 C23.4539207,21.3099559 22.4278414,20.9991189 21.2065198,20.9182379 C19.9846696,20.837533 18.4174449,20.9182379 18.4174449,20.9182379 L18.4174449,26.2081057 C18.4174449,26.2081057 20.0539207,26.2429956 21.1492511,26.1622907 C22.2435242,26.0815859 23.3732159,25.8051101 23.9379736,25.4935683 C24.5023789,25.1823789 25.1825551,24.698326 25.1825551,23.4884581 C25.1825551,22.2780617 24.3756828,21.7712775 23.9145374,21.540793 Z M20.4687225,18.4632599 C21.3681057,18.4285463 22.3245815,18.2213216 23.0155066,17.8408811 C23.7071366,17.4606167 24.0988546,16.861674 24.0762996,15.962467 C24.0526872,15.0634361 23.4539207,14.3029075 22.4398238,13.9913656 C21.4253744,13.6801762 20.7459031,13.6570925 19.9732159,13.6456388 C19.2010573,13.6343612 18.4172687,13.7034361 18.4172687,13.7034361 L18.4172687,18.4632599 C18.4174449,18.4632599 19.5698678,18.4979736 20.4687225,18.4632599 Z" id="Shape"></path>
                            <path d="M19.9846696,0 C8.94748899,0 0,8.94731278 0,19.9846696 C0,31.0218502 8.94748899,39.9693392 19.9846696,39.9693392 C31.0218502,39.9693392 39.9689868,31.0218502 39.9689868,19.9846696 C39.9689868,8.94731278 31.0218502,0 19.9846696,0 Z M28.1217621,27.6259031 C26.6345374,28.6632599 25.0442291,28.8479295 24.3411454,28.9397357 C23.994185,28.9853744 23.3998238,29.0334802 22.762467,29.070837 L22.762467,33.077533 L20.295859,33.077533 L20.295859,29.1356828 L18.4174449,29.1356828 L18.4174449,33.077533 L15.9510132,33.077533 L15.9510132,29.1356828 L11.0990308,29.1356828 L11.6059912,26.1732159 L13.0810573,26.1732159 C13.5769163,26.1732159 13.7839648,26.1272247 13.9913656,25.9314537 C14.1987665,25.7353304 14.2449339,25.4359471 14.2449339,25.1934802 L14.2449339,14.9880176 C14.2449339,14.3487225 14.1929515,14.1756828 13.8990308,13.8474009 C13.6051101,13.5184141 12.9138326,13.4752423 12.5245815,13.4752423 L11.0988546,13.4752423 L11.0988546,10.9143612 L15.950837,10.9143612 L15.950837,6.96123348 L18.4170925,6.96123348 L18.4170925,10.9143612 L20.2955066,10.9143612 L20.2955066,6.96123348 L22.7621145,6.96123348 L22.7621145,10.9617621 C24.6008811,11.0757709 25.9696916,11.4260793 27.1644053,12.3088987 C28.7090749,13.4498678 28.6280176,15.4320705 28.5934802,15.9046696 C28.5591189,16.3772687 28.3517181,17.2879295 27.9363877,17.8752423 C27.5219383,18.4632599 26.5076652,19.0511013 26.5076652,19.0511013 C26.5076652,19.0511013 27.7060793,19.3044934 28.5478414,19.9385022 C29.3885463,20.572511 30.01163,21.6902203 29.9762115,23.3268722 C29.9423789,24.9635242 29.6082819,26.5887225 28.1217621,27.6259031 Z" id="Shape"></path>
                        </g>
                    </g>
                </g>
            </g>
        </g>
    </g>
</svg>