<?xml version="1.0" encoding="UTF-8"?>
<svg width="40px" height="40px" viewBox="0 0 40 40" version="1.1" xmlns="http://www.w3.org/2000/svg" xmlns:xlink="http://www.w3.org/1999/xlink">
    <!-- Generator: sketchtool 49 (51002) - http://www.bohemiancoding.com/sketch -->
    <title>48021E93-3D5F-440F-AFB1-AE56F2A0918A</title>
    <desc>Created with sketchtool.</desc>
    <defs></defs>
    <g id="Page-1" stroke="none" stroke-width="1" fill="none" fill-rule="evenodd">
        <g id="1360" transform="translate(-633.000000, -1071.000000)" fill="#23DBB9" fill-rule="nonzero">
            <g id="Hero">
                <g id="Crypto-Icons" transform="translate(525.000000, 1031.000000)">
                    <g id="Icons" transform="translate(0.000000, 40.000000)">
                        <g id="XRP" transform="translate(108.000000, 0.000000)">
                            <path d="M19.9964758,0.032246696 C8.97057269,0.032246696 0.032246696,8.97057269 0.032246696,19.9964758 C0.032246696,31.0223789 8.97057269,39.9607048 19.9964758,39.9607048 C31.0223789,39.9607048 39.9607048,31.0222026 39.9607048,19.9964758 C39.9607048,8.97057269 31.0223789,0.032246696 19.9964758,0.032246696 Z M28.3522467,28.89163 C27.0544493,31.1217621 24.1399119,31.9081938 21.8428194,30.6484581 C19.5455507,29.3887225 18.7353304,26.5594714 20.0334802,24.329163 C20.5740969,23.4001762 20.236652,22.221674 19.2792952,21.6963877 C18.3355066,21.1788546 17.1414978,21.4909251 16.5901322,22.390837 L16.5897797,22.390837 L16.5897797,22.3871366 C16.5820264,22.4008811 16.5751542,22.4144493 16.5672247,22.4280176 C15.2694273,24.6581498 12.3550661,25.4447577 10.0579736,24.1848458 C7.76052863,22.9251101 6.95030837,20.0955066 8.24810573,17.8659031 C9.54625551,15.6355947 12.4604405,14.849163 14.7580617,16.1092511 C15.525815,16.5303965 16.1263436,17.1275771 16.5390308,17.8185022 L16.5390308,17.8160352 L16.5393833,17.8156828 C17.1117181,18.7023789 18.3111894,18.9881938 19.2426432,18.4505727 C20.187489,17.9051982 20.4981498,16.7194714 19.9362115,15.8021145 C18.5880176,13.6005286 19.3335683,10.7545374 21.6015859,9.44581498 C23.8692511,8.1369163 26.8008811,8.86061674 28.1494273,11.0620264 C29.4976211,13.2637885 28.7524229,16.1096035 26.4840529,17.4185022 C25.7499494,17.8419736 24.917967,18.0663544 24.0704846,18.0694273 L24.0725991,18.0703084 L24.0725991,18.0706608 C22.9844934,18.1071366 22.12,18.9800881 22.1330396,20.0426432 C22.1459031,21.1192952 23.0562115,21.9823789 24.1652863,21.9696916 L24.1584141,21.9733921 C24.9914888,21.9658183 25.8125682,22.1721651 26.5430837,22.5726872 C28.8398238,23.8327753 29.6500441,26.6618502 28.3522467,28.89163 Z" id="Shape"></path>
                        </g>
                    </g>
                </g>
            </g>
        </g>
    </g>
</svg>