<?xml version="1.0" encoding="UTF-8"?>
<svg width="21px" height="38px" viewBox="0 0 21 38" version="1.1" xmlns="http://www.w3.org/2000/svg" xmlns:xlink="http://www.w3.org/1999/xlink">
    <!-- Generator: sketchtool 49 (51002) - http://www.bohemiancoding.com/sketch -->
    <title>1C737944-1070-494C-99DA-42A296F22A19</title>
    <desc>Created with sketchtool.</desc>
    <defs></defs>
    <g id="Page-1" stroke="none" stroke-width="1" fill="none" fill-rule="evenodd">
        <g id="1360" transform="translate(-1283.000000, -1361.000000)" fill="#23DBB9">
            <g id="Testinomals" transform="translate(44.000000, 1231.000000)">
                <g id="Controls" transform="translate(0.000000, 104.000000)">
                    <g id="Icon-/-Interface-/-Arrow-Hover" transform="translate(1227.000000, 0.000000)">
                        <g id="Icon-/-Interface-/-Arrow-Basic-Copy" transform="translate(22.755901, 45.000000) rotate(-180.000000) translate(-22.755901, -45.000000) translate(0.255901, 0.000000)">
                            <path d="M14.8579861,44.9990046 L32.0194049,27.8375858 C32.4414722,27.4155184 32.4414722,26.7386179 32.0194049,26.3165505 C31.5973375,25.8944832 30.920437,25.8944832 30.4983696,26.3165505 L12.5724514,44.2424687 C12.1503841,44.6645361 12.1503841,45.3414366 12.5724514,45.763504 L30.4983696,63.6814586 C30.7054215,63.8885105 30.9841453,64 31.2549055,64 C31.5256657,64 31.8043894,63.896474 32.0114413,63.6814586 C32.4335087,63.2593912 32.4335087,62.5824907 32.0114413,62.1604233 L14.8579861,44.9990046 L14.8579861,44.9990046 Z" id="Icon-/-Interface-/-Arrow-Basic" transform="translate(22.295928, 45.000000) rotate(-360.000000) translate(-22.295928, -45.000000) "></path>
                        </g>
                    </g>
                </g>
            </g>
        </g>
    </g>
</svg>