<?xml version="1.0" encoding="UTF-8"?>
<svg width="20px" height="17px" viewBox="0 0 20 17" version="1.1" xmlns="http://www.w3.org/2000/svg" xmlns:xlink="http://www.w3.org/1999/xlink">
    <!-- Generator: sketchtool 49 (51002) - http://www.bohemiancoding.com/sketch -->
    <title>CD2F1382-75AC-4B4C-9CCD-3E3479C116C0</title>
    <desc>Created with sketchtool.</desc>
    <defs>
        <rect id="path-1" x="9.01757812" y="-1.39013672" width="1" height="18"></rect>
    </defs>
    <g id="Page-1" stroke="none" stroke-width="1" fill="none" fill-rule="evenodd">
        <g id="1360-hovers" transform="translate(-772.000000, -595.000000)">
            <g id="Hero">
                <g id="Registration" transform="translate(363.000000, 560.000000)">
                    <g id="Input-Copy" transform="translate(220.000000, 29.000000)">
                        <g id="Hide" transform="translate(189.000000, 7.000000)">
                            <path d="M9.53333333,1 C5.2,1 1.49933333,3.69533333 0,7.5 C1.49933333,11.3046667 5.2,14 9.53333333,14 C13.8666667,14 17.5673333,11.3046667 19.0666667,7.5 C17.5673333,3.69533333 13.8666667,1 9.53333333,1 L9.53333333,1 Z M9.53333333,11.8333333 C7.14133333,11.8333333 5.2,9.892 5.2,7.5 C5.2,5.108 7.14133333,3.16666667 9.53333333,3.16666667 C11.9253333,3.16666667 13.8666667,5.108 13.8666667,7.5 C13.8666667,9.892 11.9253333,11.8333333 9.53333333,11.8333333 L9.53333333,11.8333333 Z M9.53333333,4.9 C8.09466667,4.9 6.93333333,6.06133333 6.93333333,7.5 C6.93333333,8.93866667 8.09466667,10.1 9.53333333,10.1 C10.972,10.1 12.1333333,8.93866667 12.1333333,7.5 C12.1333333,6.06133333 10.972,4.9 9.53333333,4.9 L9.53333333,4.9 Z" id="Icon--Eye" fill="#FFFFFF"></path>
                            <g id="Rectangle-4" transform="translate(9.517578, 7.609863) rotate(45.000000) translate(-9.517578, -7.609863) ">
                                <use fill="#FFFFFF" fill-rule="evenodd" xlink:href="#path-1"></use>
                                <rect stroke="#181E2D" stroke-width="1" x="8.51757812" y="-1.89013672" width="2" height="19"></rect>
                            </g>
                        </g>
                    </g>
                </g>
            </g>
        </g>
    </g>
</svg>