<?xml version="1.0" encoding="UTF-8"?>
<svg width="20px" height="13px" viewBox="0 0 20 13" version="1.1" xmlns="http://www.w3.org/2000/svg" xmlns:xlink="http://www.w3.org/1999/xlink">
    <!-- Generator: sketchtool 49 (51002) - http://www.bohemiancoding.com/sketch -->
    <title>F780B779-912A-43FB-AD2A-BAA688056600</title>
    <desc>Created with sketchtool.</desc>
    <defs></defs>
    <g id="Page-1" stroke="none" stroke-width="1" fill="none" fill-rule="evenodd">
        <g id="1360" transform="translate(-772.000000, -597.000000)" fill="#464B57">
            <g id="Hero">
                <g id="Registration" transform="translate(363.000000, 574.000000)">
                    <g id="Input-Copy" transform="translate(220.000000, 15.000000)">
                        <path d="M198.533333,8 C194.2,8 190.499333,10.6953333 189,14.5 C190.499333,18.3046667 194.2,21 198.533333,21 C202.866667,21 206.567333,18.3046667 208.066667,14.5 C206.567333,10.6953333 202.866667,8 198.533333,8 L198.533333,8 Z M198.533333,18.8333333 C196.141333,18.8333333 194.2,16.892 194.2,14.5 C194.2,12.108 196.141333,10.1666667 198.533333,10.1666667 C200.925333,10.1666667 202.866667,12.108 202.866667,14.5 C202.866667,16.892 200.925333,18.8333333 198.533333,18.8333333 L198.533333,18.8333333 Z M198.533333,11.9 C197.094667,11.9 195.933333,13.0613333 195.933333,14.5 C195.933333,15.9386667 197.094667,17.1 198.533333,17.1 C199.972,17.1 201.133333,15.9386667 201.133333,14.5 C201.133333,13.0613333 199.972,11.9 198.533333,11.9 L198.533333,11.9 Z" id="Icon--Eye"></path>
                    </g>
                </g>
            </g>
        </g>
    </g>
</svg>