<?xml version="1.0" encoding="UTF-8"?>
<svg width="40px" height="40px" viewBox="0 0 40 40" version="1.1" xmlns="http://www.w3.org/2000/svg" xmlns:xlink="http://www.w3.org/1999/xlink">
    <!-- Generator: sketchtool 49 (51002) - http://www.bohemiancoding.com/sketch -->
    <title>1A43FB7A-152A-486E-8D38-F11FBD18F438</title>
    <desc>Created with sketchtool.</desc>
    <defs></defs>
    <g id="Page-1" stroke="none" stroke-width="1" fill="none" fill-rule="evenodd">
        <g id="1360" transform="translate(-795.000000, -1071.000000)" fill="#23DBB9" fill-rule="nonzero">
            <g id="Hero">
                <g id="Crypto-Icons" transform="translate(525.000000, 1031.000000)">
                    <g id="Icons" transform="translate(0.000000, 40.000000)">
                        <g id="ETH" transform="translate(270.000000, 0.000000)">
                            <path d="M19.9670485,0 C8.93955947,0 0,8.93955947 0,19.9670485 C0,30.9945374 8.93955947,39.9340969 19.9670485,39.9340969 C30.9945374,39.9340969 39.9340969,30.9945374 39.9340969,19.9670485 C39.9340969,8.93955947 30.9945374,0 19.9670485,0 Z M19.7081938,33.1957709 L11.8174449,22.0338326 L19.7081938,26.6537445 L19.7081938,33.1957709 Z M19.7081938,25.0177974 L11.7640529,20.3644053 L19.7081938,16.8845815 L19.7081938,25.0177974 Z M19.7081938,16.3254626 L12.0199119,19.6928634 L19.7081938,6.77550661 L19.7081938,16.3254626 Z M20.2202643,6.77162996 L28.0165639,19.740793 L20.2202643,16.3254626 L20.2202643,6.77162996 Z M20.2202643,33.1957709 L20.2202643,26.6537445 L28.1110132,22.0338326 L20.2202643,33.1957709 Z M20.2202643,25.0179736 L20.2202643,16.8847577 L28.1702203,20.3670485 L20.2202643,25.0179736 Z" id="Shape"></path>
                        </g>
                    </g>
                </g>
            </g>
        </g>
    </g>
</svg>