<?xml version="1.0" encoding="UTF-8"?>
<svg width="40px" height="40px" viewBox="0 0 40 40" version="1.1" xmlns="http://www.w3.org/2000/svg" xmlns:xlink="http://www.w3.org/1999/xlink">
    <!-- Generator: sketchtool 49 (51002) - http://www.bohemiancoding.com/sketch -->
    <title>FF77798B-5E41-4E31-B42C-1B4E98983965</title>
    <desc>Created with sketchtool.</desc>
    <defs></defs>
    <g id="Page-1" stroke="none" stroke-width="1" fill="none" fill-rule="evenodd">
        <g id="1360" transform="translate(-741.000000, -1071.000000)" fill="#23DBB9" fill-rule="nonzero">
            <g id="Hero">
                <g id="Crypto-Icons" transform="translate(525.000000, 1031.000000)">
                    <g id="Icons" transform="translate(0.000000, 40.000000)">
                        <g id="LTC" transform="translate(216.000000, 0.000000)">
                            <path d="M19.9896035,0 C8.94960352,0 0,8.94977974 0,19.9899559 C0,31.0303084 8.94960352,39.9795595 19.9896035,39.9795595 C31.0299559,39.9795595 39.9795595,31.0303084 39.9795595,19.9899559 C39.9797357,8.94977974 31.0301322,0 19.9896035,0 Z M27.7492511,29.7377974 L12.1302203,29.7377974 L13.4429956,23.4706608 L10.8903965,25.2209692 L11.5104846,21.7913656 L14.1802643,19.9534802 L16.7991189,7.45321586 L21.6750661,7.45321586 L19.8720705,16.0364758 L26.2202643,11.667489 L25.4762996,15.2211454 L19.129163,19.5723348 L17.8734802,25.5511894 L28.6167401,25.5511894 L27.7492511,29.7377974 Z" id="Shape"></path>
                        </g>
                    </g>
                </g>
            </g>
        </g>
    </g>
</svg>