<?xml version="1.0" encoding="UTF-8"?>
<svg width="40px" height="40px" viewBox="0 0 40 40" version="1.1" xmlns="http://www.w3.org/2000/svg" xmlns:xlink="http://www.w3.org/1999/xlink">
    <!-- Generator: sketchtool 49 (51002) - http://www.bohemiancoding.com/sketch -->
    <title>D84F68D1-DAE7-44BC-8859-88E288BF10F7</title>
    <desc>Created with sketchtool.</desc>
    <defs></defs>
    <g id="Page-1" stroke="none" stroke-width="1" fill="none" fill-rule="evenodd">
        <g id="1360" transform="translate(-687.000000, -1071.000000)" fill="#23DBB9" fill-rule="nonzero">
            <g id="Hero">
                <g id="Crypto-Icons" transform="translate(525.000000, 1031.000000)">
                    <g id="Icons" transform="translate(0.000000, 40.000000)">
                        <g id="DASH" transform="translate(162.000000, 0.000000)">
                            <path d="M19.9802643,0 C8.94555066,0 0,8.94555066 0,19.9802643 C0,31.0151542 8.94555066,39.9607048 19.9804405,39.9607048 C31.0153304,39.9607048 39.9608811,31.0151542 39.9608811,19.9802643 C39.9607048,8.94555066 31.0151542,0 19.9802643,0 Z M9.96687225,18.4673128 L17.9432599,18.4673128 L17.0202643,21.4671366 L9.04422907,21.4671366 L9.96687225,18.4673128 Z M30.630837,17.052511 C30.3134802,18.1989427 29.2817621,21.6380617 28.858326,22.8577974 C28.4354185,24.077533 27.654978,25.101674 26.6546256,25.6872247 C25.6544493,26.2727753 25.2807048,26.517533 23.8826432,26.517533 L9.56881057,26.517533 L10.5769163,23.2502203 L24.0385903,23.2502203 L26.0498678,16.7111894 L12.6948018,16.7111894 L13.7030837,13.4440529 L28.6065198,13.4440529 C29.2893392,13.4440529 30.1917181,13.7598238 30.630837,14.6139207 C31.0697797,15.4669604 30.9478414,15.9060793 30.630837,17.052511 Z" id="Shape"></path>
                        </g>
                    </g>
                </g>
            </g>
        </g>
    </g>
</svg>